<svg width="34" height="33" viewBox="0 0 34 33" fill="none" xmlns="http://www.w3.org/2000/svg">
<path d="M17.8967 2.07654L21.5158 9.40951C21.9528 10.2949 22.7975 10.9087 23.7746 11.0506L31.867 12.2265C32.6872 12.3457 33.0147 13.3537 32.4212 13.9322L26.5655 19.6402C25.8584 20.3294 25.5358 21.3224 25.7027 22.2955L27.0851 30.3553C27.2252 31.1722 26.3677 31.7951 25.6341 31.4094L18.396 27.6042C17.5221 27.1447 16.4779 27.1447 15.604 27.6042L8.3659 31.4094C7.63227 31.7951 6.77484 31.1722 6.91495 30.3553L8.2973 22.2955C8.46421 21.3224 8.14157 20.3294 7.43451 19.6402L1.57878 13.9322C0.985264 13.3537 1.31277 12.3457 2.13299 12.2265L10.2254 11.0506C11.2025 10.9087 12.0472 10.2949 12.4842 9.40951L16.1033 2.07654C16.4701 1.33329 17.5299 1.33329 17.8967 2.07654Z" stroke="#353535" stroke-opacity="0.15" stroke-width="2"/>
</svg>
