<svg width="20" height="20" viewBox="0 0 20 20" fill="none" xmlns="http://www.w3.org/2000/svg">
<g id="reload 1 (traced)">
<g id="Black">
<path id="Vector" d="M15.34 2.01566C15.2189 2.05081 15.086 2.13675 14.9806 2.24613C14.7423 2.48441 14.6876 2.69144 14.6876 3.36331V3.89456L14.3087 3.64456C12.5821 2.50784 10.379 2.10941 8.32433 2.56253C7.12902 2.82816 5.94933 3.40628 5.01964 4.18753C1.48058 7.14456 1.23839 12.4883 4.4923 15.7383C5.44933 16.6953 6.60558 17.375 7.88683 17.7383C10.0587 18.3477 12.4571 17.9883 14.297 16.7696C14.8126 16.4258 15.0509 16.2383 15.465 15.8399C16.5079 14.8399 17.2618 13.543 17.6173 12.1289C17.7657 11.5547 17.8634 10.7539 17.8439 10.2813C17.8321 9.93363 17.8204 9.87894 17.715 9.70316C17.4103 9.21488 16.7032 9.1055 16.2853 9.4805C16.0235 9.71488 15.9728 9.86331 15.9337 10.4649C15.836 12.0469 15.2814 13.2813 14.1837 14.375C13.1446 15.4141 12.0079 15.9453 10.5157 16.0977C9.22277 16.2305 7.72277 15.8164 6.58996 15.0118C6.1798 14.7227 5.51183 14.0547 5.22277 13.6446C4.41808 12.5118 4.00402 11.0157 4.13683 9.71878C4.28136 8.26956 4.80871 7.12503 5.78917 6.10941C6.64074 5.2305 7.64074 4.67581 8.85558 4.40628C9.41417 4.28128 10.6212 4.28128 11.1993 4.40628C11.9454 4.57034 12.6329 4.8555 13.2618 5.26175L13.6134 5.48831L12.715 5.50784C11.8907 5.52738 11.8048 5.53519 11.6603 5.61331C11.3478 5.78128 11.1759 6.08206 11.172 6.45706C11.172 6.83597 11.3517 7.12894 11.6993 7.31644C11.8556 7.40238 11.879 7.40238 13.8868 7.40238C15.9103 7.40238 15.9181 7.40238 16.0782 7.31644C16.2814 7.20706 16.5118 6.94534 16.5626 6.76175C16.6134 6.57425 16.6134 2.80081 16.5626 2.61331C16.5118 2.43363 16.2814 2.168 16.0939 2.07034C15.8829 1.96487 15.5704 1.94144 15.34 2.01566Z" fill="#7B7584"/>
</g>
</g>
</svg>
