<svg width="20" height="20" viewBox="0 0 20 20" fill="none" xmlns="http://www.w3.org/2000/svg">
<g id="clock 1 (traced)" clip-path="url(#clip0_210_463)">
<g id="Black">
<path id="Vector" d="M8.89411 0.878906C6.94099 1.11719 5.06208 2.00781 3.65583 3.36328C3.11677 3.88281 2.77692 4.28125 2.36677 4.89453C1.61286 6.01172 1.10114 7.35547 0.890205 8.76953C0.81208 9.3125 0.823799 10.8125 0.909736 11.3477C1.18317 13.0039 1.81989 14.4727 2.80036 15.7148C3.08552 16.0781 3.92145 16.9141 4.28474 17.1992C5.52302 18.1758 7.0113 18.8203 8.65192 19.0898C9.25739 19.1875 10.7418 19.1875 11.3472 19.0898C13.3277 18.7656 14.9957 17.9414 16.3785 16.6055C17.9449 15.0898 18.9254 13.0625 19.1441 10.8789C19.1988 10.3086 19.1715 9.16406 19.0816 8.61328C18.4215 4.46094 15.1011 1.30078 10.9293 0.859375C10.4254 0.808594 9.41755 0.816406 8.89411 0.878906ZM10.4136 4.31641C10.5191 4.37891 10.6246 4.48828 10.691 4.60156L10.8004 4.78516L10.8121 7.22656L10.8238 9.66797L11.9879 10.8398C12.6285 11.4844 13.1871 12.0742 13.2261 12.1484C13.2691 12.2305 13.2965 12.3711 13.2965 12.5C13.3004 13.1133 12.6285 13.5039 12.109 13.1953C11.8941 13.0664 9.37067 10.5391 9.27302 10.3516C9.2027 10.2227 9.1988 10.0703 9.1988 7.5V4.78516L9.30427 4.60156C9.54255 4.20312 10.0113 4.08203 10.4136 4.31641Z" fill="#7B7584"/>
</g>
</g>
<defs>
<clipPath id="clip0_210_463">
<rect width="20" height="20" fill="white"/>
</clipPath>
</defs>
</svg>
