<svg width="20" height="20" viewBox="0 0 20 20" fill="none" xmlns="http://www.w3.org/2000/svg">
<g id="gift 1 (traced)">
<g id="Black">
<path id="Vector" d="M6.80469 1.05469C6.10938 1.15234 5.5 1.47266 5.02734 1.99609C4.22656 2.87891 4.17969 4.14062 4.92188 4.96875L5.125 5.19531H4.73828C4.21484 5.19531 3.94531 5.25 3.55859 5.4375C2.94141 5.73437 2.46875 6.33984 2.32422 7.01562C2.28906 7.1875 2.26562 7.51562 2.26562 7.91797V8.55469H10H17.7344V7.91797C17.7344 7.51562 17.7109 7.1875 17.6758 7.01562C17.5312 6.33984 17.0586 5.73437 16.4414 5.4375C16.0547 5.25 15.7852 5.19531 15.2812 5.19531H14.9102L15.1133 4.98047C15.3711 4.70703 15.5703 4.29297 15.6289 3.90625C15.6641 3.66797 15.6641 3.55078 15.6133 3.28125C15.3828 1.95312 14.3086 1.05469 12.9531 1.05469C12.457 1.05469 12.1445 1.12891 11.7422 1.33594C11.3398 1.54687 10.9141 1.96094 10.6328 2.42187C10.4375 2.73828 10.1562 3.39453 10.0977 3.66016C10.082 3.73047 10.0586 3.78906 10.043 3.78906C10.0273 3.78906 9.96875 3.67578 9.91406 3.53906C9.77734 3.19531 9.30859 2.41406 9.02734 2.05859C8.40234 1.27344 7.66016 0.937499 6.80469 1.05469ZM7.45703 2.42187C7.54297 2.46484 7.67578 2.55469 7.75391 2.62109C7.91016 2.75781 8.30859 3.33984 8.48047 3.67969C8.54297 3.80469 8.60938 3.90625 8.62891 3.90625C8.66406 3.90625 8.89062 4.4375 9.04688 4.89844L9.14062 5.16797L8.71875 5.14453C7.55859 5.07812 6.48047 4.71094 5.96094 4.19922C5.71875 3.96094 5.64844 3.78906 5.67188 3.5C5.69531 3.23047 5.80078 3.02734 6.03516 2.78906C6.46875 2.35156 7.03906 2.20703 7.45703 2.42187ZM13.5391 2.46094C13.9766 2.67578 14.3008 3.15234 14.3086 3.59766C14.3125 3.85156 14.1562 4.09766 13.8555 4.32422C13.6094 4.50781 13.0547 4.78906 12.7266 4.89844C12.4023 5.00391 11.75 5.12109 11.3398 5.14453L10.9453 5.16797L11.2344 4.29297C11.5508 3.34375 11.7266 2.99609 12.0234 2.70703C12.4531 2.28906 13.0078 2.19922 13.5391 2.46094Z" fill="#E19885"/>
<path id="Vector_2" d="M2.26563 13.3086C2.26563 17.2734 2.26172 17.1562 2.53907 17.7227C2.75391 18.1602 3.08985 18.4961 3.52735 18.7109C4.07813 18.9805 4.08985 18.9844 6.88672 18.9844H9.375V14.375V9.76562H5.82032H2.26563V13.3086Z" fill="#E19885"/>
<path id="Vector_3" d="M10.625 14.375V18.9844H13.1172C15.9102 18.9844 15.9219 18.9805 16.4727 18.7109C16.9102 18.4961 17.2461 18.1602 17.4609 17.7227C17.7383 17.1562 17.7344 17.2734 17.7344 13.3086V9.76562H14.1797H10.625V14.375Z" fill="#E19885"/>
</g>
</g>
</svg>
