<svg width="104" height="100" viewBox="0 0 104 100" fill="none" xmlns="http://www.w3.org/2000/svg">
<g id="Group 58">
<circle id="Ellipse 42" cx="52" cy="60" r="35" stroke="#353535" stroke-opacity="0.05" stroke-width="10"/>
<g id="Ellipse 43" filter="url(#filter0_d_210_1747)">
<mask id="path-2-inside-1_210_1747" fill="white">
<path d="M76.8318 35.1682C78.7386 33.2614 78.7546 30.1426 76.6299 28.4823C73.7882 26.2616 70.6531 24.4307 67.3073 23.0448C62.4543 21.0346 57.2529 20 52 20C46.7471 20 41.5457 21.0346 36.6927 23.0448C33.3468 24.4307 30.2118 26.2616 27.3701 28.4823C25.2454 30.1427 25.2614 33.2614 27.1682 35.1682C29.0749 37.0749 32.1477 37.0366 34.3362 35.4613C36.2252 34.1016 38.2692 32.9613 40.4296 32.0665C44.0978 30.547 48.0295 29.765 52 29.765C55.9705 29.765 59.9022 30.547 63.5704 32.0665C65.7307 32.9613 67.7748 34.1016 69.6637 35.4613C71.8522 37.0366 74.9251 37.0749 76.8318 35.1682Z"/>
</mask>
<path d="M76.8318 35.1682C78.7386 33.2614 78.7546 30.1426 76.6299 28.4823C73.7882 26.2616 70.6531 24.4307 67.3073 23.0448C62.4543 21.0346 57.2529 20 52 20C46.7471 20 41.5457 21.0346 36.6927 23.0448C33.3468 24.4307 30.2118 26.2616 27.3701 28.4823C25.2454 30.1427 25.2614 33.2614 27.1682 35.1682C29.0749 37.0749 32.1477 37.0366 34.3362 35.4613C36.2252 34.1016 38.2692 32.9613 40.4296 32.0665C44.0978 30.547 48.0295 29.765 52 29.765C55.9705 29.765 59.9022 30.547 63.5704 32.0665C65.7307 32.9613 67.7748 34.1016 69.6637 35.4613C71.8522 37.0366 74.9251 37.0749 76.8318 35.1682Z" stroke="#E19885" stroke-width="20" shape-rendering="crispEdges" mask="url(#path-2-inside-1_210_1747)"/>
</g>
</g>
<defs>
<filter id="filter0_d_210_1747" x="0.756836" y="0" width="102.486" height="66.6221" filterUnits="userSpaceOnUse" color-interpolation-filters="sRGB">
<feFlood flood-opacity="0" result="BackgroundImageFix"/>
<feColorMatrix in="SourceAlpha" type="matrix" values="0 0 0 0 0 0 0 0 0 0 0 0 0 0 0 0 0 0 127 0" result="hardAlpha"/>
<feOffset dy="5"/>
<feGaussianBlur stdDeviation="12.5"/>
<feComposite in2="hardAlpha" operator="out"/>
<feColorMatrix type="matrix" values="0 0 0 0 0.882353 0 0 0 0 0.596078 0 0 0 0 0.521569 0 0 0 0.5 0"/>
<feBlend mode="normal" in2="BackgroundImageFix" result="effect1_dropShadow_210_1747"/>
<feBlend mode="normal" in="SourceGraphic" in2="effect1_dropShadow_210_1747" result="shape"/>
</filter>
</defs>
</svg>
