<svg width="18" height="18" viewBox="0 0 18 18" fill="none" xmlns="http://www.w3.org/2000/svg">
<path id="Star 4" d="M8.10326 1.81699C8.49388 1.02551 8.68919 0.629776 9 0.629776C9.31081 0.629776 9.50612 1.02551 9.89674 1.81699L11.7063 5.48347C11.8202 5.71441 11.8772 5.82987 11.9771 5.90242C12.0769 5.97497 12.2043 5.99348 12.4592 6.03051L16.5054 6.61846C17.3788 6.74538 17.8156 6.80884 17.9116 7.10444C18.0077 7.40004 17.6916 7.70808 17.0596 8.32416L14.1318 11.1781C13.9473 11.3579 13.8551 11.4478 13.817 11.5651C13.7789 11.6825 13.8006 11.8094 13.8442 12.0632L14.5353 16.0931C14.6845 16.963 14.7591 17.398 14.5077 17.5807C14.2562 17.7634 13.8656 17.558 13.0844 17.1473L9.46534 15.2446C9.2374 15.1248 9.12342 15.0649 9 15.0649C8.87658 15.0649 8.7626 15.1248 8.53466 15.2446L4.91562 17.1473C4.13439 17.558 3.74377 17.7634 3.49232 17.5807C3.24087 17.398 3.31547 16.963 3.46467 16.0931L4.15585 12.0632C4.19938 11.8094 4.22115 11.6825 4.18301 11.5651C4.14487 11.4478 4.05266 11.3579 3.86825 11.1781L0.940385 8.32416C0.308355 7.70808 -0.00765896 7.40004 0.0883875 7.10444C0.184434 6.80884 0.621155 6.74538 1.4946 6.61846L5.54081 6.03051C5.79566 5.99348 5.92308 5.97497 6.02293 5.90242C6.12279 5.82987 6.17977 5.71441 6.29374 5.48347L8.10326 1.81699Z" fill="#E19885"/>
</svg>
