<svg width="20" height="20" viewBox="0 0 20 20" fill="none" xmlns="http://www.w3.org/2000/svg">
<g id="user 1 (traced)">
<g id="Black">
<path id="Vector" d="M9.14023 1.94944C8.35117 2.12522 7.67148 2.51194 7.10507 3.11741C6.78867 3.44944 6.64023 3.66038 6.44492 4.05491C5.51523 5.92991 6.19492 8.22678 7.98789 9.26585C9.29257 10.0198 10.9176 9.98069 12.1754 9.16038C14.234 7.81663 14.5855 4.91038 12.9059 3.12522C12.5426 2.7385 12.2027 2.49241 11.7379 2.26585C11.148 1.97678 10.8434 1.90647 10.0973 1.89085C9.59336 1.87913 9.40976 1.89085 9.14023 1.94944Z" fill="#7B7584"/>
<path id="Vector_2" d="M7.03125 11.0428C5.92188 11.1678 4.97656 11.6053 4.19141 12.3514C3.23438 13.2694 2.69531 14.5037 2.69531 15.7811C2.69531 16.6912 3.16016 17.4842 3.91406 17.867C4.45703 18.1405 4.0625 18.1248 9.99609 18.1248C15.8555 18.1248 15.5703 18.1366 16.0312 17.9022C16.457 17.6873 16.8633 17.285 17.0781 16.8631C17.2109 16.5975 17.3047 16.1444 17.3047 15.7616C17.3047 13.8162 16.0039 11.9842 14.1406 11.3084C13.9805 11.2498 13.6914 11.1678 13.4961 11.1209C13.1562 11.0428 13.0352 11.0389 10.1562 11.0311C8.51172 11.0272 7.10547 11.0311 7.03125 11.0428Z" fill="#7B7584"/>
</g>
</g>
</svg>
